{
	"patcher" : 	{
		"fileversion" : 1,
		"appversion" : 		{
			"major" : 8,
			"minor" : 3,
			"revision" : 1,
			"architecture" : "x64",
			"modernui" : 1
		}
,
		"classnamespace" : "box",
		"rect" : [ 1474.0, 90.0, 1980.0, 956.0 ],
		"bglocked" : 0,
		"openinpresentation" : 0,
		"default_fontsize" : 12.0,
		"default_fontface" : 0,
		"default_fontname" : "Arial",
		"gridonopen" : 1,
		"gridsize" : [ 15.0, 15.0 ],
		"gridsnaponopen" : 1,
		"objectsnaponopen" : 1,
		"statusbarvisible" : 2,
		"toolbarvisible" : 1,
		"lefttoolbarpinned" : 0,
		"toptoolbarpinned" : 0,
		"righttoolbarpinned" : 0,
		"bottomtoolbarpinned" : 0,
		"toolbars_unpinned_last_save" : 0,
		"tallnewobj" : 0,
		"boxanimatetime" : 200,
		"enablehscroll" : 1,
		"enablevscroll" : 1,
		"devicewidth" : 0.0,
		"description" : "",
		"digest" : "",
		"tags" : "",
		"style" : "",
		"subpatcher_template" : "",
		"assistshowspatchername" : 0,
		"boxes" : [ 			{
				"box" : 				{
					"fontsize" : 8.821527376324559,
					"format" : 6,
					"id" : "obj-28",
					"maxclass" : "flonum",
					"maximum" : 1.0,
					"minimum" : 0.0,
					"numinlets" : 1,
					"numoutlets" : 2,
					"outlettype" : [ "", "bang" ],
					"parameter_enable" : 0,
					"patching_rect" : [ 696.627538883397165, 15.163933992385864, 39.325841844081879, 18.0 ],
					"varname" : "pan"
				}

			}
, 			{
				"box" : 				{
					"comment" : "automatic pan value",
					"id" : "obj-24",
					"index" : 0,
					"maxclass" : "inlet",
					"numinlets" : 0,
					"numoutlets" : 1,
					"outlettype" : [ "" ],
					"patching_rect" : [ 679.796079420754495, 15.163933992385864, 14.83145946264267, 14.83145946264267 ]
				}

			}
, 			{
				"box" : 				{
					"bgmode" : 0,
					"border" : 0,
					"clickthrough" : 0,
					"enablehscroll" : 0,
					"enablevscroll" : 0,
					"id" : "obj-23",
					"lockeddragscroll" : 0,
					"lockedsize" : 0,
					"maxclass" : "bpatcher",
					"name" : "PanWithOverride.maxpat",
					"numinlets" : 1,
					"numoutlets" : 1,
					"offset" : [ 0.0, 0.0 ],
					"outlettype" : [ "" ],
					"patching_rect" : [ 525.691680359984275, 152.807425857753742, 168.93585852341289, 47.191009014844894 ],
					"presentation" : 1,
					"presentation_rect" : [ 525.691680359984275, 152.807425857753742, 168.93585852341289, 47.191009014844894 ],
					"viewvisibility" : 1
				}

			}
, 			{
				"box" : 				{
					"id" : "obj-22",
					"linecount" : 3,
					"maxclass" : "comment",
					"numinlets" : 1,
					"numoutlets" : 0,
					"patching_rect" : [ 801.123659491539001, 20.786518514156342, 150.0, 60.0 ],
					"presentation_linecount" : 3,
					"text" : "abstract parameters\nvolume sends to control from kbd? - ignore?\n"
				}

			}
, 			{
				"box" : 				{
					"comment" : "delay lane patcher left inlet - buffer",
					"id" : "obj-19",
					"index" : 0,
					"maxclass" : "outlet",
					"numinlets" : 1,
					"numoutlets" : 0,
					"patching_rect" : [ 780.453935759682054, 384.479923702978795, 26.229248470356652, 26.229248470356652 ]
				}

			}
, 			{
				"box" : 				{
					"id" : "obj-18",
					"lastchannelcount" : 0,
					"maxclass" : "mc.live.gain~",
					"numinlets" : 1,
					"numoutlets" : 4,
					"outlettype" : [ "multichannelsignal", "", "float", "list" ],
					"parameter_enable" : 1,
					"patching_rect" : [ 780.453935759682054, 99.782285676569927, 50.0, 154.0 ],
					"presentation" : 1,
					"presentation_rect" : [ 780.453935759682054, 99.782285676569927, 50.0, 154.0 ],
					"saved_attribute_attributes" : 					{
						"valueof" : 						{
							"parameter_longname" : "mc.live.gain~",
							"parameter_mmax" : 6.0,
							"parameter_mmin" : -70.0,
							"parameter_shortname" : "mc.live.gain~",
							"parameter_type" : 0,
							"parameter_unitstyle" : 4
						}

					}
,
					"showname" : 0,
					"varname" : "gain"
				}

			}
, 			{
				"box" : 				{
					"id" : "obj-16",
					"maxclass" : "newobj",
					"numinlets" : 2,
					"numoutlets" : 1,
					"outlettype" : [ "multichannelsignal" ],
					"patching_rect" : [ 715.919262306103292, 292.241742865414608, 40.0, 22.0 ],
					"text" : "mc.*~"
				}

			}
, 			{
				"box" : 				{
					"id" : "obj-13",
					"maxclass" : "textbutton",
					"mode" : 1,
					"numinlets" : 1,
					"numoutlets" : 3,
					"outlettype" : [ "", "", "int" ],
					"parameter_enable" : 0,
					"patching_rect" : [ 349.870845146476995, 99.782285676569927, 41.212472662329674, 24.31078964471817 ],
					"presentation" : 1,
					"presentation_rect" : [ 349.870845146476995, 99.782285676569927, 41.212472662329674, 24.31078964471817 ],
					"text" : "Show",
					"textcolor" : [ 0.807843137254902, 0.898039215686275, 0.909803921568627, 1.0 ],
					"texton" : "Hide",
					"textoncolor" : [ 0.631372549019608, 0.631372549019608, 0.631372549019608, 1.0 ]
				}

			}
, 			{
				"box" : 				{
					"fontsize" : 6.903062349567415,
					"id" : "obj-12",
					"maxclass" : "message",
					"numinlets" : 2,
					"numoutlets" : 1,
					"outlettype" : [ "" ],
					"patching_rect" : [ 605.555474538836734, 29.163933992385864, 29.5, 16.0 ],
					"text" : "clear"
				}

			}
, 			{
				"box" : 				{
					"fontsize" : 7.514628530218846,
					"id" : "obj-11",
					"maxclass" : "comment",
					"numinlets" : 1,
					"numoutlets" : 0,
					"patching_rect" : [ 545.08195161819458, 79.663267548019817, 136.639345645904541, 15.0 ],
					"text" : "Delay lane component goes here"
				}

			}
, 			{
				"box" : 				{
					"comment" : "delay lane right inlet - pan",
					"id" : "obj-8",
					"index" : 0,
					"maxclass" : "outlet",
					"numinlets" : 1,
					"numoutlets" : 0,
					"patching_rect" : [ 611.803261756896973, 57.995573720864968, 17.004425563879295, 17.004425563879295 ]
				}

			}
, 			{
				"box" : 				{
					"comment" : "delay lane right output - playhead pos (signal)",
					"id" : "obj-9",
					"index" : 0,
					"maxclass" : "inlet",
					"numinlets" : 0,
					"numoutlets" : 1,
					"outlettype" : [ "" ],
					"patching_rect" : [ 611.803261756896973, 99.782285676569927, 17.004425563879295, 17.004425563879295 ]
				}

			}
, 			{
				"box" : 				{
					"comment" : "delay lane patcher left inlet - buffer",
					"id" : "obj-7",
					"index" : 0,
					"maxclass" : "outlet",
					"numinlets" : 1,
					"numoutlets" : 0,
					"patching_rect" : [ 556.885230541229248, 57.995573720864968, 17.004425563879295, 17.004425563879295 ]
				}

			}
, 			{
				"box" : 				{
					"comment" : "delay lane left output - mc signal",
					"id" : "obj-4",
					"index" : 0,
					"maxclass" : "inlet",
					"numinlets" : 0,
					"numoutlets" : 1,
					"outlettype" : [ "" ],
					"patching_rect" : [ 556.885230541229248, 99.782285676569927, 17.004425563879295, 17.004425563879295 ]
				}

			}
, 			{
				"box" : 				{
					"comment" : "",
					"id" : "obj-2",
					"index" : 0,
					"maxclass" : "inlet",
					"numinlets" : 0,
					"numoutlets" : 1,
					"outlettype" : [ "" ],
					"patching_rect" : [ 134.426225662231445, 15.163933992385864, 30.0, 30.0 ]
				}

			}
, 			{
				"box" : 				{
					"bgcolor" : [ 0.898039215686275, 0.615686274509804, 1.0, 1.0 ],
					"bgmode" : 2,
					"border" : 0,
					"clickthrough" : 0,
					"enablehscroll" : 0,
					"enablevscroll" : 0,
					"id" : "obj-47",
					"lockeddragscroll" : 0,
					"lockedsize" : 0,
					"maxclass" : "bpatcher",
					"name" : "Preamp.maxpat",
					"numinlets" : 1,
					"numoutlets" : 1,
					"offset" : [ 0.0, 0.0 ],
					"outlettype" : [ "multichannelsignal" ],
					"patching_rect" : [ 293.433124490082037, 86.727256403536785, 54.437720656394958, 179.351347923278809 ],
					"presentation" : 1,
					"presentation_rect" : [ 293.433124490082037, 86.727256403536785, 54.437720656394958, 179.351347923278809 ],
					"viewvisibility" : 1
				}

			}
, 			{
				"box" : 				{
					"id" : "obj-29",
					"maxclass" : "newobj",
					"numinlets" : 2,
					"numoutlets" : 1,
					"outlettype" : [ "multichannelsignal" ],
					"patching_rect" : [ 344.262285232543945, 29.163933992385864, 58.0, 22.0 ],
					"text" : "mc.gate~"
				}

			}
, 			{
				"box" : 				{
					"bgcolor" : [ 0.27843137254902, 0.266666666666667, 0.266666666666667, 1.0 ],
					"fontsize" : 9.0,
					"id" : "obj-58",
					"maxclass" : "textbutton",
					"numinlets" : 1,
					"numoutlets" : 3,
					"outlettype" : [ "", "", "int" ],
					"parameter_enable" : 0,
					"patching_rect" : [ 474.206357398340288, 99.782285676569927, 48.226620942354202, 24.831666767597198 ],
					"presentation" : 1,
					"presentation_rect" : [ 474.206357398340288, 99.782285676569927, 48.226620942354202, 24.831666767597198 ],
					"text" : "Clear",
					"textoncolor" : [ 1.0, 0.952941176470588, 0.545098039215686, 1.0 ]
				}

			}
, 			{
				"box" : 				{
					"fontsize" : 6.903062349567415,
					"id" : "obj-55",
					"maxclass" : "message",
					"numinlets" : 2,
					"numoutlets" : 1,
					"outlettype" : [ "" ],
					"patching_rect" : [ 556.885230541229248, 29.163933992385864, 44.384613990783691, 16.0 ],
					"text" : "freeze $1"
				}

			}
, 			{
				"box" : 				{
					"bgcolor" : [ 0.313725490196078, 0.313725490196078, 0.313725490196078, 1.0 ],
					"bgoncolor" : [ 0.415686274509804, 0.968627450980392, 1.0, 1.0 ],
					"id" : "obj-56",
					"maxclass" : "textbutton",
					"mode" : 1,
					"numinlets" : 1,
					"numoutlets" : 3,
					"outlettype" : [ "", "", "int" ],
					"parameter_enable" : 0,
					"patching_rect" : [ 391.443973593413602, 99.782285676569927, 80.762383804926685, 24.31078964471817 ],
					"presentation" : 1,
					"presentation_rect" : [ 391.443973593413602, 99.782285676569927, 80.762383804926685, 24.31078964471817 ],
					"text" : "Freeze",
					"textcolor" : [ 0.564705882352941, 0.866666666666667, 1.0, 1.0 ],
					"texton" : "Unfreeze",
					"textoncolor" : [ 0.0, 0.0, 0.0, 1.0 ],
					"usebgoncolor" : 1
				}

			}
, 			{
				"box" : 				{
					"fontsize" : 8.468505654643378,
					"id" : "obj-97",
					"linecount" : 2,
					"maxclass" : "comment",
					"numinlets" : 1,
					"numoutlets" : 0,
					"patching_rect" : [ 622.656329230675283, 205.822329209418285, 43.0, 25.0 ],
					"presentation" : 1,
					"presentation_linecount" : 2,
					"presentation_rect" : [ 622.656329230675283, 205.822329209418285, 43.0, 25.0 ],
					"text" : "playhead\nposition",
					"textcolor" : [ 1.0, 1.0, 1.0, 1.0 ]
				}

			}
, 			{
				"box" : 				{
					"fontface" : 0,
					"fontname" : "Arial",
					"fontsize" : 12.0,
					"id" : "obj-98",
					"maxclass" : "number~",
					"mode" : 1,
					"numdecimalplaces" : 1,
					"numinlets" : 2,
					"numoutlets" : 2,
					"outlettype" : [ "signal", "float" ],
					"patching_rect" : [ 536.379832116826492, 207.322329209418285, 84.276497113848791, 22.0 ],
					"presentation" : 1,
					"presentation_rect" : [ 536.379832116826492, 207.322329209418285, 84.276497113848791, 22.0 ],
					"sig" : 0.0
				}

			}
, 			{
				"box" : 				{
					"id" : "obj-404",
					"maxclass" : "live.scope~",
					"numinlets" : 2,
					"numoutlets" : 1,
					"outlettype" : [ "bang" ],
					"patching_rect" : [ 349.870845146476995, 126.698119060368526, 176.249561712145805, 127.025446474552211 ],
					"presentation" : 1,
					"presentation_rect" : [ 349.870845146476995, 126.698119060368526, 176.249561712145805, 127.025446474552211 ]
				}

			}
, 			{
				"box" : 				{
					"id" : "obj-300",
					"maxclass" : "newobj",
					"numinlets" : 0,
					"numoutlets" : 2,
					"outlettype" : [ "int", "float" ],
					"patcher" : 					{
						"fileversion" : 1,
						"appversion" : 						{
							"major" : 8,
							"minor" : 3,
							"revision" : 1,
							"architecture" : "x64",
							"modernui" : 1
						}
,
						"classnamespace" : "box",
						"rect" : [ 1474.0, 90.0, 1973.0, 956.0 ],
						"bglocked" : 0,
						"openinpresentation" : 0,
						"default_fontsize" : 12.0,
						"default_fontface" : 0,
						"default_fontname" : "Arial",
						"gridonopen" : 1,
						"gridsize" : [ 15.0, 15.0 ],
						"gridsnaponopen" : 1,
						"objectsnaponopen" : 1,
						"statusbarvisible" : 2,
						"toolbarvisible" : 1,
						"lefttoolbarpinned" : 0,
						"toptoolbarpinned" : 0,
						"righttoolbarpinned" : 0,
						"bottomtoolbarpinned" : 0,
						"toolbars_unpinned_last_save" : 0,
						"tallnewobj" : 0,
						"boxanimatetime" : 200,
						"enablehscroll" : 1,
						"enablevscroll" : 1,
						"devicewidth" : 0.0,
						"description" : "",
						"digest" : "",
						"tags" : "",
						"style" : "",
						"subpatcher_template" : "",
						"assistshowspatchername" : 0,
						"boxes" : [ 							{
								"box" : 								{
									"id" : "obj-251",
									"maxclass" : "newobj",
									"numinlets" : 1,
									"numoutlets" : 2,
									"outlettype" : [ "int", "float" ],
									"patching_rect" : [ 50.0, 124.0, 71.0, 22.0 ],
									"text" : "unpack 0 0."
								}

							}
, 							{
								"box" : 								{
									"id" : "obj-250",
									"maxclass" : "newobj",
									"numinlets" : 0,
									"numoutlets" : 1,
									"outlettype" : [ "" ],
									"patching_rect" : [ 50.0, 100.0, 65.0, 22.0 ],
									"text" : "r band3vol"
								}

							}
, 							{
								"box" : 								{
									"comment" : "",
									"id" : "obj-296",
									"index" : 2,
									"maxclass" : "outlet",
									"numinlets" : 1,
									"numoutlets" : 0,
									"patching_rect" : [ 44.00002646446228, 205.999996345321676, 30.0, 30.0 ]
								}

							}
, 							{
								"box" : 								{
									"comment" : "",
									"id" : "obj-297",
									"index" : 1,
									"maxclass" : "outlet",
									"numinlets" : 1,
									"numoutlets" : 0,
									"patching_rect" : [ 24.00002646446228, 205.999996345321676, 30.0, 30.0 ]
								}

							}
 ],
						"lines" : [ 							{
								"patchline" : 								{
									"destination" : [ "obj-251", 0 ],
									"source" : [ "obj-250", 0 ]
								}

							}
, 							{
								"patchline" : 								{
									"destination" : [ "obj-296", 0 ],
									"source" : [ "obj-251", 1 ]
								}

							}
, 							{
								"patchline" : 								{
									"destination" : [ "obj-297", 0 ],
									"source" : [ "obj-251", 0 ]
								}

							}
 ]
					}
,
					"patching_rect" : [ 750.812065591975283, 32.663933992385864, 49.765370309352647, 15.0 ],
					"saved_object_attributes" : 					{
						"description" : "",
						"digest" : "",
						"globalpatchername" : "",
						"tags" : ""
					}
,
					"style" : "tiny",
					"text" : "p vol3setup"
				}

			}
, 			{
				"box" : 				{
					"bgcolor" : [ 1.0, 0.0, 0.0, 1.0 ],
					"bgoncolor" : [ 0.27843137254902, 0.27843137254902, 0.27843137254902, 1.0 ],
					"fontsize" : 14.0,
					"id" : "obj-282",
					"maxclass" : "textbutton",
					"mode" : 1,
					"numinlets" : 1,
					"numoutlets" : 3,
					"outlettype" : [ "", "", "int" ],
					"parameter_enable" : 0,
					"patching_rect" : [ 763.426689827153496, 126.698119060368526, 24.536121838995996, 22.0 ],
					"presentation" : 1,
					"presentation_rect" : [ 763.426689827153496, 126.698119060368526, 24.536121838995996, 22.0 ],
					"text" : "m",
					"textcolor" : [ 0.870588235294118, 0.870588235294118, 0.870588235294118, 1.0 ],
					"texton" : "m",
					"usebgoncolor" : 1
				}

			}
, 			{
				"box" : 				{
					"id" : "obj-265",
					"maxclass" : "newobj",
					"numinlets" : 0,
					"numoutlets" : 3,
					"outlettype" : [ "int", "", "float" ],
					"patcher" : 					{
						"fileversion" : 1,
						"appversion" : 						{
							"major" : 8,
							"minor" : 3,
							"revision" : 1,
							"architecture" : "x64",
							"modernui" : 1
						}
,
						"classnamespace" : "box",
						"rect" : [ 1474.0, 90.0, 1973.0, 956.0 ],
						"bglocked" : 0,
						"openinpresentation" : 0,
						"default_fontsize" : 12.0,
						"default_fontface" : 0,
						"default_fontname" : "Arial",
						"gridonopen" : 1,
						"gridsize" : [ 15.0, 15.0 ],
						"gridsnaponopen" : 1,
						"objectsnaponopen" : 1,
						"statusbarvisible" : 2,
						"toolbarvisible" : 1,
						"lefttoolbarpinned" : 0,
						"toptoolbarpinned" : 0,
						"righttoolbarpinned" : 0,
						"bottomtoolbarpinned" : 0,
						"toolbars_unpinned_last_save" : 0,
						"tallnewobj" : 0,
						"boxanimatetime" : 200,
						"enablehscroll" : 1,
						"enablevscroll" : 1,
						"devicewidth" : 0.0,
						"description" : "",
						"digest" : "",
						"tags" : "",
						"style" : "",
						"subpatcher_template" : "",
						"assistshowspatchername" : 0,
						"boxes" : [ 							{
								"box" : 								{
									"id" : "obj-257",
									"maxclass" : "newobj",
									"numinlets" : 0,
									"numoutlets" : 1,
									"outlettype" : [ "" ],
									"patching_rect" : [ 178.034736961126328, 115.0, 42.0, 22.0 ],
									"text" : "r state"
								}

							}
, 							{
								"box" : 								{
									"id" : "obj-283",
									"maxclass" : "newobj",
									"numinlets" : 0,
									"numoutlets" : 1,
									"outlettype" : [ "" ],
									"patching_rect" : [ 230.034736961126328, 115.0, 83.0, 22.0 ],
									"text" : "r drunkmetro1"
								}

							}
, 							{
								"box" : 								{
									"id" : "obj-29",
									"maxclass" : "newobj",
									"numinlets" : 5,
									"numoutlets" : 1,
									"outlettype" : [ "" ],
									"patching_rect" : [ 212.784736961126328, 231.124417245388031, 64.0, 22.0 ],
									"text" : "drunkpitch"
								}

							}
, 							{
								"box" : 								{
									"id" : "obj-226",
									"maxclass" : "newobj",
									"numinlets" : 1,
									"numoutlets" : 5,
									"outlettype" : [ "float", "float", "float", "float", "int" ],
									"patching_rect" : [ 65.0, 155.124417245388031, 111.0, 22.0 ],
									"text" : "unpack 0. 0. 0. 0. 0"
								}

							}
, 							{
								"box" : 								{
									"id" : "obj-227",
									"maxclass" : "newobj",
									"numinlets" : 0,
									"numoutlets" : 1,
									"outlettype" : [ "" ],
									"patching_rect" : [ 65.0, 115.0, 48.0, 22.0 ],
									"text" : "r pitch3"
								}

							}
, 							{
								"box" : 								{
									"comment" : "",
									"id" : "obj-258",
									"index" : 3,
									"maxclass" : "outlet",
									"numinlets" : 1,
									"numoutlets" : 0,
									"patching_rect" : [ 271.000013867477378, 280.499986231327057, 30.0, 30.0 ]
								}

							}
, 							{
								"box" : 								{
									"comment" : "",
									"id" : "obj-259",
									"index" : 1,
									"maxclass" : "outlet",
									"numinlets" : 1,
									"numoutlets" : 0,
									"patching_rect" : [ 100.000013867477378, 318.499986231327057, 30.0, 30.0 ]
								}

							}
, 							{
								"box" : 								{
									"comment" : "",
									"id" : "obj-260",
									"index" : 2,
									"maxclass" : "outlet",
									"numinlets" : 1,
									"numoutlets" : 0,
									"patching_rect" : [ 211.146864867477461, 280.499986231327057, 30.0, 30.0 ]
								}

							}
 ],
						"lines" : [ 							{
								"patchline" : 								{
									"destination" : [ "obj-258", 0 ],
									"midpoints" : [ 97.5, 267.0, 280.500013867477378, 267.0 ],
									"source" : [ "obj-226", 1 ]
								}

							}
, 							{
								"patchline" : 								{
									"destination" : [ "obj-259", 0 ],
									"midpoints" : [ 166.5, 267.0, 109.500013867477378, 267.0 ],
									"source" : [ "obj-226", 4 ]
								}

							}
, 							{
								"patchline" : 								{
									"destination" : [ "obj-29", 4 ],
									"midpoints" : [ 143.5, 216.0, 267.284736961126328, 216.0 ],
									"source" : [ "obj-226", 3 ]
								}

							}
, 							{
								"patchline" : 								{
									"destination" : [ "obj-29", 2 ],
									"midpoints" : [ 120.5, 216.0, 244.784736961126328, 216.0 ],
									"source" : [ "obj-226", 2 ]
								}

							}
, 							{
								"patchline" : 								{
									"destination" : [ "obj-29", 3 ],
									"midpoints" : [ 74.5, 216.0, 256.034736961126328, 216.0 ],
									"source" : [ "obj-226", 0 ]
								}

							}
, 							{
								"patchline" : 								{
									"destination" : [ "obj-226", 0 ],
									"midpoints" : [ 74.5, 138.0, 74.5, 138.0 ],
									"source" : [ "obj-227", 0 ]
								}

							}
, 							{
								"patchline" : 								{
									"destination" : [ "obj-29", 0 ],
									"midpoints" : [ 187.534736961126328, 216.0, 222.284736961126328, 216.0 ],
									"source" : [ "obj-257", 0 ]
								}

							}
, 							{
								"patchline" : 								{
									"destination" : [ "obj-29", 1 ],
									"midpoints" : [ 239.534736961126328, 138.0, 233.534736961126328, 138.0 ],
									"source" : [ "obj-283", 0 ]
								}

							}
, 							{
								"patchline" : 								{
									"destination" : [ "obj-260", 0 ],
									"midpoints" : [ 222.284736961126328, 276.0, 220.646864867477461, 276.0 ],
									"source" : [ "obj-29", 0 ]
								}

							}
 ]
					}
,
					"patching_rect" : [ 665.21180915207583, 43.286518514156342, 44.0, 15.0 ],
					"saved_object_attributes" : 					{
						"description" : "",
						"digest" : "",
						"globalpatchername" : "",
						"tags" : ""
					}
,
					"style" : "tiny",
					"text" : "p pitch3setup"
				}

			}
, 			{
				"box" : 				{
					"id" : "obj-214",
					"maxclass" : "newobj",
					"numinlets" : 4,
					"numoutlets" : 1,
					"outlettype" : [ "multichannelsignal" ],
					"patcher" : 					{
						"fileversion" : 1,
						"appversion" : 						{
							"major" : 8,
							"minor" : 3,
							"revision" : 1,
							"architecture" : "x64",
							"modernui" : 1
						}
,
						"classnamespace" : "box",
						"rect" : [ 180.0, 209.0, 640.0, 480.0 ],
						"bglocked" : 0,
						"openinpresentation" : 0,
						"default_fontsize" : 12.0,
						"default_fontface" : 0,
						"default_fontname" : "Arial",
						"gridonopen" : 1,
						"gridsize" : [ 15.0, 15.0 ],
						"gridsnaponopen" : 1,
						"objectsnaponopen" : 1,
						"statusbarvisible" : 2,
						"toolbarvisible" : 1,
						"lefttoolbarpinned" : 0,
						"toptoolbarpinned" : 0,
						"righttoolbarpinned" : 0,
						"bottomtoolbarpinned" : 0,
						"toolbars_unpinned_last_save" : 0,
						"tallnewobj" : 0,
						"boxanimatetime" : 200,
						"enablehscroll" : 1,
						"enablevscroll" : 1,
						"devicewidth" : 0.0,
						"description" : "",
						"digest" : "",
						"tags" : "",
						"style" : "",
						"subpatcher_template" : "",
						"assistshowspatchername" : 0,
						"boxes" : [ 							{
								"box" : 								{
									"fontname" : "Arial",
									"fontsize" : 12.0,
									"id" : "obj-12",
									"maxclass" : "newobj",
									"numinlets" : 2,
									"numoutlets" : 3,
									"outlettype" : [ "multichannelsignal", "", "" ],
									"patching_rect" : [ 50.0, 142.0, 82.0, 22.0 ],
									"text" : "mc.pitchshift~"
								}

							}
, 							{
								"box" : 								{
									"fontname" : "Arial",
									"fontsize" : 10.0,
									"id" : "obj-68",
									"maxclass" : "comment",
									"numinlets" : 1,
									"numoutlets" : 0,
									"patching_rect" : [ 352.5, 158.0, 21.0, 18.0 ],
									"text" : "ct"
								}

							}
, 							{
								"box" : 								{
									"fontname" : "Arial",
									"fontsize" : 13.0,
									"format" : 6,
									"id" : "obj-11",
									"maxclass" : "flonum",
									"numinlets" : 1,
									"numoutlets" : 2,
									"outlettype" : [ "", "bang" ],
									"parameter_enable" : 0,
									"patching_rect" : [ 298.5, 158.0, 54.0, 23.0 ]
								}

							}
, 							{
								"box" : 								{
									"fontname" : "Arial",
									"fontsize" : 13.0,
									"id" : "obj-8",
									"maxclass" : "newobj",
									"numinlets" : 3,
									"numoutlets" : 2,
									"outlettype" : [ "", "bang" ],
									"patching_rect" : [ 298.5, 134.0, 63.0, 23.0 ],
									"text" : "line 0. 0."
								}

							}
, 							{
								"box" : 								{
									"fontname" : "Arial",
									"fontsize" : 13.0,
									"id" : "obj-7",
									"maxclass" : "newobj",
									"numinlets" : 2,
									"numoutlets" : 1,
									"outlettype" : [ "" ],
									"patching_rect" : [ 298.5, 100.0, 101.0, 23.0 ],
									"text" : "pack 0. 0."
								}

							}
, 							{
								"box" : 								{
									"fontname" : "Arial",
									"fontsize" : 13.0,
									"id" : "obj-79",
									"maxclass" : "newobj",
									"numinlets" : 1,
									"numoutlets" : 1,
									"outlettype" : [ "" ],
									"patching_rect" : [ 226.0, 142.0, 23.0, 23.0 ],
									"text" : "t l"
								}

							}
, 							{
								"box" : 								{
									"fontname" : "Arial",
									"fontsize" : 13.0,
									"id" : "obj-76",
									"maxclass" : "message",
									"numinlets" : 2,
									"numoutlets" : 1,
									"outlettype" : [ "" ],
									"patching_rect" : [ 226.0, 100.0, 68.0, 23.0 ],
									"text" : "quality $1"
								}

							}
, 							{
								"box" : 								{
									"fontname" : "Arial",
									"fontsize" : 13.0,
									"id" : "obj-73",
									"maxclass" : "message",
									"numinlets" : 2,
									"numoutlets" : 1,
									"outlettype" : [ "" ],
									"patching_rect" : [ 298.5, 191.0, 102.0, 23.0 ],
									"text" : "pitchshiftcent $1"
								}

							}
, 							{
								"box" : 								{
									"comment" : "multi-channel signal in",
									"id" : "obj-39",
									"index" : 1,
									"maxclass" : "inlet",
									"numinlets" : 0,
									"numoutlets" : 1,
									"outlettype" : [ "" ],
									"patching_rect" : [ 50.0, 40.0, 30.0, 30.0 ],
									"style" : "redness"
								}

							}
, 							{
								"box" : 								{
									"comment" : "quality string: basic | good | better | best",
									"cool" : 1,
									"id" : "obj-44",
									"index" : 2,
									"maxclass" : "inlet",
									"numinlets" : 0,
									"numoutlets" : 1,
									"outlettype" : [ "" ],
									"patching_rect" : [ 226.0, 40.0, 30.0, 30.0 ]
								}

							}
, 							{
								"box" : 								{
									"comment" : "transpose (cents; float)",
									"cool" : 1,
									"id" : "obj-45",
									"index" : 3,
									"maxclass" : "inlet",
									"numinlets" : 0,
									"numoutlets" : 1,
									"outlettype" : [ "" ],
									"patching_rect" : [ 298.5, 40.0, 30.0, 30.0 ]
								}

							}
, 							{
								"box" : 								{
									"comment" : "glide (ms; float)",
									"id" : "obj-46",
									"index" : 4,
									"maxclass" : "inlet",
									"numinlets" : 0,
									"numoutlets" : 1,
									"outlettype" : [ "" ],
									"patching_rect" : [ 380.5, 40.0, 30.0, 30.0 ]
								}

							}
, 							{
								"box" : 								{
									"comment" : "",
									"id" : "obj-48",
									"index" : 1,
									"maxclass" : "outlet",
									"numinlets" : 1,
									"numoutlets" : 0,
									"patching_rect" : [ 50.0, 278.5, 30.0, 30.0 ],
									"style" : "redness"
								}

							}
 ],
						"lines" : [ 							{
								"patchline" : 								{
									"destination" : [ "obj-73", 0 ],
									"midpoints" : [ 308.0, 183.0, 308.0, 183.0 ],
									"source" : [ "obj-11", 0 ]
								}

							}
, 							{
								"patchline" : 								{
									"destination" : [ "obj-48", 0 ],
									"source" : [ "obj-12", 0 ]
								}

							}
, 							{
								"patchline" : 								{
									"destination" : [ "obj-12", 0 ],
									"source" : [ "obj-39", 0 ]
								}

							}
, 							{
								"patchline" : 								{
									"destination" : [ "obj-76", 0 ],
									"source" : [ "obj-44", 0 ]
								}

							}
, 							{
								"patchline" : 								{
									"destination" : [ "obj-7", 0 ],
									"source" : [ "obj-45", 0 ]
								}

							}
, 							{
								"patchline" : 								{
									"destination" : [ "obj-7", 1 ],
									"source" : [ "obj-46", 0 ]
								}

							}
, 							{
								"patchline" : 								{
									"destination" : [ "obj-8", 0 ],
									"midpoints" : [ 308.0, 126.0, 308.0, 126.0 ],
									"source" : [ "obj-7", 0 ]
								}

							}
, 							{
								"patchline" : 								{
									"destination" : [ "obj-79", 0 ],
									"midpoints" : [ 308.0, 216.0, 261.0, 216.0, 261.0, 138.0, 235.5, 138.0 ],
									"source" : [ "obj-73", 0 ]
								}

							}
, 							{
								"patchline" : 								{
									"destination" : [ "obj-79", 0 ],
									"midpoints" : [ 235.5, 126.0, 235.5, 126.0 ],
									"source" : [ "obj-76", 0 ]
								}

							}
, 							{
								"patchline" : 								{
									"destination" : [ "obj-12", 0 ],
									"midpoints" : [ 235.5, 168.0, 144.0, 168.0, 144.0, 135.0, 59.5, 135.0 ],
									"source" : [ "obj-79", 0 ]
								}

							}
, 							{
								"patchline" : 								{
									"destination" : [ "obj-11", 0 ],
									"midpoints" : [ 308.0, 159.0, 308.0, 159.0 ],
									"source" : [ "obj-8", 0 ]
								}

							}
 ]
					}
,
					"patching_rect" : [ 578.015258331332234, 344.873317138524044, 77.0, 22.0 ],
					"saved_object_attributes" : 					{
						"description" : "",
						"digest" : "",
						"globalpatchername" : "",
						"tags" : ""
					}
,
					"text" : "p pitchshifter"
				}

			}
, 			{
				"box" : 				{
					"appearance" : 1,
					"id" : "obj-217",
					"maxclass" : "live.dial",
					"numinlets" : 1,
					"numoutlets" : 2,
					"outlettype" : [ "", "float" ],
					"parameter_enable" : 1,
					"patching_rect" : [ 710.419262306103292, 175.960842297644604, 54.0, 36.0 ],
					"presentation" : 1,
					"presentation_rect" : [ 710.419262306103292, 175.960842297644604, 54.0, 36.0 ],
					"saved_attribute_attributes" : 					{
						"textcolor" : 						{
							"expression" : ""
						}
,
						"valueof" : 						{
							"parameter_exponent" : 3.0,
							"parameter_initial" : [ 0 ],
							"parameter_initial_enable" : 1,
							"parameter_linknames" : 1,
							"parameter_longname" : "Glide[1]",
							"parameter_mmax" : 10000.0,
							"parameter_shortname" : "Glide",
							"parameter_type" : 0,
							"parameter_unitstyle" : 2
						}

					}
,
					"textcolor" : [ 1.0, 1.0, 1.0, 1.0 ],
					"varname" : "Glide[1]"
				}

			}
, 			{
				"box" : 				{
					"id" : "obj-218",
					"maxclass" : "live.dial",
					"numinlets" : 1,
					"numoutlets" : 2,
					"outlettype" : [ "", "float" ],
					"parameter_enable" : 1,
					"patching_rect" : [ 699.919262306103292, 117.851303295464504, 56.0, 48.0 ],
					"presentation" : 1,
					"presentation_rect" : [ 699.919262306103292, 117.851303295464504, 56.0, 48.0 ],
					"saved_attribute_attributes" : 					{
						"textcolor" : 						{
							"expression" : ""
						}
,
						"valueof" : 						{
							"parameter_initial" : [ 491 ],
							"parameter_initial_enable" : 1,
							"parameter_linknames" : 1,
							"parameter_longname" : "Transp[1]",
							"parameter_mmax" : 10000.0,
							"parameter_mmin" : -10000.0,
							"parameter_shortname" : "Transp",
							"parameter_type" : 0,
							"parameter_units" : "ct",
							"parameter_unitstyle" : 9
						}

					}
,
					"textcolor" : [ 1.0, 1.0, 1.0, 1.0 ],
					"varname" : "Transp[1]"
				}

			}
, 			{
				"box" : 				{
					"fontname" : "Arial",
					"fontsize" : 8.379670211804441,
					"id" : "obj-219",
					"maxclass" : "comment",
					"numinlets" : 1,
					"numoutlets" : 0,
					"patching_rect" : [ 710.419262306103292, 213.960842297644604, 35.0, 16.0 ],
					"presentation" : 1,
					"presentation_rect" : [ 710.419262306103292, 213.960842297644604, 35.0, 16.0 ],
					"text" : "Quality",
					"textcolor" : [ 1.0, 1.0, 1.0, 1.0 ]
				}

			}
, 			{
				"box" : 				{
					"id" : "obj-220",
					"maxclass" : "live.menu",
					"numinlets" : 1,
					"numoutlets" : 3,
					"outlettype" : [ "", "", "float" ],
					"parameter_enable" : 1,
					"patching_rect" : [ 710.419262306103292, 224.607595221371639, 41.853108510375023, 15.0 ],
					"presentation" : 1,
					"presentation_rect" : [ 710.419262306103292, 224.607595221371639, 41.853108510375023, 15.0 ],
					"saved_attribute_attributes" : 					{
						"valueof" : 						{
							"parameter_enum" : [ "basic", "good", "better", "best" ],
							"parameter_initial" : [ 2 ],
							"parameter_initial_enable" : 1,
							"parameter_linknames" : 1,
							"parameter_longname" : "Quality[1]",
							"parameter_mmax" : 3,
							"parameter_shortname" : "Quality",
							"parameter_type" : 2
						}

					}
,
					"varname" : "Quality[1]"
				}

			}
 ],
		"lines" : [ 			{
				"patchline" : 				{
					"destination" : [ "obj-7", 0 ],
					"source" : [ "obj-12", 0 ]
				}

			}
, 			{
				"patchline" : 				{
					"destination" : [ "obj-29", 0 ],
					"source" : [ "obj-13", 0 ]
				}

			}
, 			{
				"patchline" : 				{
					"destination" : [ "obj-18", 0 ],
					"midpoints" : [ 725.419262306103292, 324.0, 837.0, 324.0, 837.0, 120.0, 789.953935759682054, 120.0 ],
					"source" : [ "obj-16", 0 ]
				}

			}
, 			{
				"patchline" : 				{
					"destination" : [ "obj-19", 0 ],
					"source" : [ "obj-18", 0 ]
				}

			}
, 			{
				"patchline" : 				{
					"destination" : [ "obj-47", 0 ],
					"source" : [ "obj-2", 0 ]
				}

			}
, 			{
				"patchline" : 				{
					"destination" : [ "obj-16", 0 ],
					"midpoints" : [ 587.515258331332234, 390.917287290096283, 702.0, 390.917287290096283, 702.0, 288.0, 725.419262306103292, 288.0 ],
					"order" : 0,
					"source" : [ "obj-214", 0 ]
				}

			}
, 			{
				"patchline" : 				{
					"destination" : [ "obj-29", 1 ],
					"midpoints" : [ 587.515258331332234, 392.486151695251465, 285.0, 392.486151695251465, 285.0, 15.0, 392.762285232543945, 15.0 ],
					"order" : 1,
					"source" : [ "obj-214", 0 ]
				}

			}
, 			{
				"patchline" : 				{
					"destination" : [ "obj-214", 3 ],
					"midpoints" : [ 719.919262306103292, 250.200551317305553, 645.515258331332234, 250.200551317305553 ],
					"source" : [ "obj-217", 0 ]
				}

			}
, 			{
				"patchline" : 				{
					"destination" : [ "obj-214", 2 ],
					"midpoints" : [ 709.419262306103292, 181.0, 669.0, 181.0, 669.0, 232.0, 626.181924997998863, 232.0 ],
					"source" : [ "obj-218", 0 ]
				}

			}
, 			{
				"patchline" : 				{
					"destination" : [ "obj-214", 1 ],
					"midpoints" : [ 731.345816561290803, 226.98626582440852, 606.848591664665605, 226.98626582440852 ],
					"source" : [ "obj-220", 1 ]
				}

			}
, 			{
				"patchline" : 				{
					"destination" : [ "obj-8", 0 ],
					"midpoints" : [ 535.191680359984275, 51.0, 621.303261756896973, 51.0 ],
					"source" : [ "obj-23", 0 ]
				}

			}
, 			{
				"patchline" : 				{
					"destination" : [ "obj-23", 0 ],
					"midpoints" : [ 688.627538883397165, 192.0, 535.191680359984275, 192.0 ],
					"source" : [ "obj-24", 0 ]
				}

			}
, 			{
				"patchline" : 				{
					"destination" : [ "obj-217", 0 ],
					"midpoints" : [ 699.71180915207583, 184.0, 719.919262306103292, 184.0 ],
					"source" : [ "obj-265", 2 ]
				}

			}
, 			{
				"patchline" : 				{
					"destination" : [ "obj-218", 0 ],
					"source" : [ "obj-265", 1 ]
				}

			}
, 			{
				"patchline" : 				{
					"destination" : [ "obj-220", 0 ],
					"midpoints" : [ 674.71180915207583, 127.0, 684.0, 127.0, 684.0, 232.0, 719.919262306103292, 232.0 ],
					"source" : [ "obj-265", 0 ]
				}

			}
, 			{
				"patchline" : 				{
					"destination" : [ "obj-23", 0 ],
					"midpoints" : [ 706.127538883397165, 192.0, 535.191680359984275, 192.0 ],
					"source" : [ "obj-28", 0 ]
				}

			}
, 			{
				"patchline" : 				{
					"destination" : [ "obj-16", 1 ],
					"midpoints" : [ 772.926689827153496, 162.0, 774.0, 162.0, 774.0, 273.0, 746.419262306103292, 273.0 ],
					"source" : [ "obj-282", 0 ]
				}

			}
, 			{
				"patchline" : 				{
					"destination" : [ "obj-404", 0 ],
					"source" : [ "obj-29", 0 ]
				}

			}
, 			{
				"patchline" : 				{
					"destination" : [ "obj-282", 0 ],
					"source" : [ "obj-300", 0 ]
				}

			}
, 			{
				"patchline" : 				{
					"destination" : [ "obj-214", 0 ],
					"source" : [ "obj-4", 0 ]
				}

			}
, 			{
				"patchline" : 				{
					"destination" : [ "obj-7", 0 ],
					"midpoints" : [ 302.933124490082037, 267.0, 279.0, 267.0, 279.0, 63.0, 543.0, 63.0, 543.0, 51.0, 566.385230541229248, 51.0 ],
					"source" : [ "obj-47", 0 ]
				}

			}
, 			{
				"patchline" : 				{
					"destination" : [ "obj-7", 0 ],
					"source" : [ "obj-55", 0 ]
				}

			}
, 			{
				"patchline" : 				{
					"destination" : [ "obj-55", 0 ],
					"source" : [ "obj-56", 0 ]
				}

			}
, 			{
				"patchline" : 				{
					"destination" : [ "obj-12", 0 ],
					"source" : [ "obj-58", 0 ]
				}

			}
, 			{
				"patchline" : 				{
					"destination" : [ "obj-98", 0 ],
					"source" : [ "obj-9", 0 ]
				}

			}
 ],
		"parameters" : 		{
			"obj-18" : [ "mc.live.gain~", "mc.live.gain~", 0 ],
			"obj-217" : [ "Glide[1]", "Glide", 0 ],
			"obj-218" : [ "Transp[1]", "Transp", 0 ],
			"obj-220" : [ "Quality[1]", "Quality", 0 ],
			"obj-47::obj-2" : [ "live.dial", "Preamp", 0 ],
			"parameterbanks" : 			{
				"0" : 				{
					"index" : 0,
					"name" : "",
					"parameters" : [ "-", "-", "-", "-", "-", "-", "-", "-" ]
				}

			}
,
			"inherited_shortname" : 1
		}
,
		"dependency_cache" : [ 			{
				"name" : "PanWithOverride.maxpat",
				"bootpath" : "~/Documents/Max 8/Library",
				"patcherrelativepath" : "../../../../../Users/j/Documents/Max 8/Library",
				"type" : "JSON",
				"implicit" : 1
			}
, 			{
				"name" : "Preamp.maxpat",
				"bootpath" : "~/Documents/Max 8/Library",
				"patcherrelativepath" : "../../../../../Users/j/Documents/Max 8/Library",
				"type" : "JSON",
				"implicit" : 1
			}
, 			{
				"name" : "drunkpitch.maxpat",
				"bootpath" : "~/Documents/Max 8/Library",
				"patcherrelativepath" : "../../../../../Users/j/Documents/Max 8/Library",
				"type" : "JSON",
				"implicit" : 1
			}
 ],
		"autosave" : 0,
		"styles" : [ 			{
				"name" : "tiny",
				"default" : 				{
					"accentcolor" : [ 0.462745098039216, 0.458823529411765, 0.458823529411765, 1.0 ],
					"fontsize" : [ 6.0 ]
				}
,
				"parentstyle" : "",
				"multi" : 0
			}
 ],
		"bgcolor" : [ 0.733333333333333, 0.0, 1.0, 1.0 ],
		"editing_bgcolor" : [ 0.733333333333333, 0.0, 1.0, 1.0 ]
	}

}
